<svg
    viewBox="0.0 0.0 1024.0 1024.0"
    width="800.0"
    height="800.0"
    xmlns="http://www.w3.org/2000/svg"
>
    <style>
        .s0 {
            fill: hsl(20, 20%, 96%);
        }
        .s1 {
            fill: none;
            stroke: hsl(160, 60%, 45%);
            stroke-width: 1.28;
        }
        .s2 {
            fill: hsl(160, 60%, 45%);
            text-anchor: middle;
        }
        .s3 {
            fill: none;
            stroke: hsl(220, 60%, 45%);
            stroke-width: 2.56;
        }
        .s4 {
            fill: hsl(220, 60%, 45%);
            text-anchor: middle;
        }
        .s5 {
            fill: none;
            stroke: hsl(0, 0%, 30%);
            stroke-width: 1.92;
        }
        .s6 {
            fill: none;
            stroke: hsl(0, 50%, 50%);
            stroke-width: 1.92;
        }
    </style>
    <rect x="0.0" y="0.0" width="1024.0" height="1024.0" class="s0" />
    <rect x="0.0" y="0.0" width="64.0" height="64.0" class="s1" />
    <text x="32.0" y="32.0" font-size="15.36" class="s2">00</text>
    <rect x="64.0" y="0.0" width="64.0" height="64.0" class="s1" />
    <text x="96.0" y="32.0" font-size="15.36" class="s2">01</text>
    <rect x="128.0" y="0.0" width="64.0" height="64.0" class="s1" />
    <text x="160.0" y="32.0" font-size="15.36" class="s2">02</text>
    <rect x="192.0" y="0.0" width="64.0" height="64.0" class="s1" />
    <text x="224.0" y="32.0" font-size="15.36" class="s2">03</text>
    <rect x="0.0" y="64.0" width="64.0" height="64.0" class="s1" />
    <text x="32.0" y="96.0" font-size="15.36" class="s2">04</text>
    <rect x="64.0" y="64.0" width="64.0" height="64.0" class="s1" />
    <text x="96.0" y="96.0" font-size="15.36" class="s2">05</text>
    <rect x="128.0" y="64.0" width="64.0" height="64.0" class="s1" />
    <text x="160.0" y="96.0" font-size="15.36" class="s2">06</text>
    <rect x="192.0" y="64.0" width="64.0" height="64.0" class="s1" />
    <text x="224.0" y="96.0" font-size="15.36" class="s2">07</text>
    <rect x="0.0" y="128.0" width="64.0" height="64.0" class="s1" />
    <text x="32.0" y="160.0" font-size="15.36" class="s2">08</text>
    <rect x="64.0" y="128.0" width="64.0" height="64.0" class="s1" />
    <text x="96.0" y="160.0" font-size="15.36" class="s2">09</text>
    <rect x="128.0" y="128.0" width="64.0" height="64.0" class="s1" />
    <text x="160.0" y="160.0" font-size="15.36" class="s2">0A</text>
    <rect x="192.0" y="128.0" width="64.0" height="64.0" class="s1" />
    <text x="224.0" y="160.0" font-size="15.36" class="s2">0B</text>
    <rect x="0.0" y="192.0" width="64.0" height="64.0" class="s1" />
    <text x="32.0" y="224.0" font-size="15.36" class="s2">0C</text>
    <rect x="64.0" y="192.0" width="64.0" height="64.0" class="s1" />
    <text x="96.0" y="224.0" font-size="15.36" class="s2">0D</text>
    <rect x="128.0" y="192.0" width="64.0" height="64.0" class="s1" />
    <text x="160.0" y="224.0" font-size="15.36" class="s2">0E</text>
    <rect x="192.0" y="192.0" width="64.0" height="64.0" class="s1" />
    <text x="224.0" y="224.0" font-size="15.36" class="s2">0F</text>
    <rect x="256.0" y="0.0" width="64.0" height="64.0" class="s1" />
    <text x="288.0" y="32.0" font-size="15.36" class="s2">10</text>
    <rect x="320.0" y="0.0" width="64.0" height="64.0" class="s1" />
    <text x="352.0" y="32.0" font-size="15.36" class="s2">11</text>
    <rect x="384.0" y="0.0" width="64.0" height="64.0" class="s1" />
    <text x="416.0" y="32.0" font-size="15.36" class="s2">12</text>
    <rect x="448.0" y="0.0" width="64.0" height="64.0" class="s1" />
    <text x="480.0" y="32.0" font-size="15.36" class="s2">13</text>
    <rect x="256.0" y="64.0" width="64.0" height="64.0" class="s1" />
    <text x="288.0" y="96.0" font-size="15.36" class="s2">14</text>
    <rect x="320.0" y="64.0" width="64.0" height="64.0" class="s1" />
    <text x="352.0" y="96.0" font-size="15.36" class="s2">15</text>
    <rect x="384.0" y="64.0" width="64.0" height="64.0" class="s1" />
    <text x="416.0" y="96.0" font-size="15.36" class="s2">16</text>
    <rect x="448.0" y="64.0" width="64.0" height="64.0" class="s1" />
    <text x="480.0" y="96.0" font-size="15.36" class="s2">17</text>
    <rect x="256.0" y="128.0" width="64.0" height="64.0" class="s1" />
    <text x="288.0" y="160.0" font-size="15.36" class="s2">18</text>
    <rect x="320.0" y="128.0" width="64.0" height="64.0" class="s1" />
    <text x="352.0" y="160.0" font-size="15.36" class="s2">19</text>
    <rect x="384.0" y="128.0" width="64.0" height="64.0" class="s1" />
    <text x="416.0" y="160.0" font-size="15.36" class="s2">1A</text>
    <rect x="448.0" y="128.0" width="64.0" height="64.0" class="s1" />
    <text x="480.0" y="160.0" font-size="15.36" class="s2">1B</text>
    <rect x="256.0" y="192.0" width="64.0" height="64.0" class="s1" />
    <text x="288.0" y="224.0" font-size="15.36" class="s2">1C</text>
    <rect x="320.0" y="192.0" width="64.0" height="64.0" class="s1" />
    <text x="352.0" y="224.0" font-size="15.36" class="s2">1D</text>
    <rect x="384.0" y="192.0" width="64.0" height="64.0" class="s1" />
    <text x="416.0" y="224.0" font-size="15.36" class="s2">1E</text>
    <rect x="448.0" y="192.0" width="64.0" height="64.0" class="s1" />
    <text x="480.0" y="224.0" font-size="15.36" class="s2">1F</text>
    <rect x="512.0" y="0.0" width="64.0" height="64.0" class="s1" />
    <text x="544.0" y="32.0" font-size="15.36" class="s2">20</text>
    <rect x="576.0" y="0.0" width="64.0" height="64.0" class="s1" />
    <text x="608.0" y="32.0" font-size="15.36" class="s2">21</text>
    <rect x="640.0" y="0.0" width="64.0" height="64.0" class="s1" />
    <text x="672.0" y="32.0" font-size="15.36" class="s2">22</text>
    <rect x="704.0" y="0.0" width="64.0" height="64.0" class="s1" />
    <text x="736.0" y="32.0" font-size="15.36" class="s2">23</text>
    <rect x="512.0" y="64.0" width="64.0" height="64.0" class="s1" />
    <text x="544.0" y="96.0" font-size="15.36" class="s2">24</text>
    <rect x="576.0" y="64.0" width="64.0" height="64.0" class="s1" />
    <text x="608.0" y="96.0" font-size="15.36" class="s2">25</text>
    <rect x="640.0" y="64.0" width="64.0" height="64.0" class="s1" />
    <text x="672.0" y="96.0" font-size="15.36" class="s2">26</text>
    <rect x="704.0" y="64.0" width="64.0" height="64.0" class="s1" />
    <text x="736.0" y="96.0" font-size="15.36" class="s2">27</text>
    <rect x="512.0" y="128.0" width="64.0" height="64.0" class="s1" />
    <text x="544.0" y="160.0" font-size="15.36" class="s2">28</text>
    <rect x="576.0" y="128.0" width="64.0" height="64.0" class="s1" />
    <text x="608.0" y="160.0" font-size="15.36" class="s2">29</text>
    <rect x="640.0" y="128.0" width="64.0" height="64.0" class="s1" />
    <text x="672.0" y="160.0" font-size="15.36" class="s2">2A</text>
    <rect x="704.0" y="128.0" width="64.0" height="64.0" class="s1" />
    <text x="736.0" y="160.0" font-size="15.36" class="s2">2B</text>
    <rect x="512.0" y="192.0" width="64.0" height="64.0" class="s1" />
    <text x="544.0" y="224.0" font-size="15.36" class="s2">2C</text>
    <rect x="576.0" y="192.0" width="64.0" height="64.0" class="s1" />
    <text x="608.0" y="224.0" font-size="15.36" class="s2">2D</text>
    <rect x="640.0" y="192.0" width="64.0" height="64.0" class="s1" />
    <text x="672.0" y="224.0" font-size="15.36" class="s2">2E</text>
    <rect x="704.0" y="192.0" width="64.0" height="64.0" class="s1" />
    <text x="736.0" y="224.0" font-size="15.36" class="s2">2F</text>
    <rect x="768.0" y="0.0" width="64.0" height="64.0" class="s1" />
    <text x="800.0" y="32.0" font-size="15.36" class="s2">30</text>
    <rect x="832.0" y="0.0" width="64.0" height="64.0" class="s1" />
    <text x="864.0" y="32.0" font-size="15.36" class="s2">31</text>
    <rect x="896.0" y="0.0" width="64.0" height="64.0" class="s1" />
    <text x="928.0" y="32.0" font-size="15.36" class="s2">32</text>
    <rect x="960.0" y="0.0" width="64.0" height="64.0" class="s1" />
    <text x="992.0" y="32.0" font-size="15.36" class="s2">33</text>
    <rect x="768.0" y="64.0" width="64.0" height="64.0" class="s1" />
    <text x="800.0" y="96.0" font-size="15.36" class="s2">34</text>
    <rect x="832.0" y="64.0" width="64.0" height="64.0" class="s1" />
    <text x="864.0" y="96.0" font-size="15.36" class="s2">35</text>
    <rect x="896.0" y="64.0" width="64.0" height="64.0" class="s1" />
    <text x="928.0" y="96.0" font-size="15.36" class="s2">36</text>
    <rect x="960.0" y="64.0" width="64.0" height="64.0" class="s1" />
    <text x="992.0" y="96.0" font-size="15.36" class="s2">37</text>
    <rect x="768.0" y="128.0" width="64.0" height="64.0" class="s1" />
    <text x="800.0" y="160.0" font-size="15.36" class="s2">38</text>
    <rect x="832.0" y="128.0" width="64.0" height="64.0" class="s1" />
    <text x="864.0" y="160.0" font-size="15.36" class="s2">39</text>
    <rect x="896.0" y="128.0" width="64.0" height="64.0" class="s1" />
    <text x="928.0" y="160.0" font-size="15.36" class="s2">3A</text>
    <rect x="960.0" y="128.0" width="64.0" height="64.0" class="s1" />
    <text x="992.0" y="160.0" font-size="15.36" class="s2">3B</text>
    <rect x="768.0" y="192.0" width="64.0" height="64.0" class="s1" />
    <text x="800.0" y="224.0" font-size="15.36" class="s2">3C</text>
    <rect x="832.0" y="192.0" width="64.0" height="64.0" class="s1" />
    <text x="864.0" y="224.0" font-size="15.36" class="s2">3D</text>
    <rect x="896.0" y="192.0" width="64.0" height="64.0" class="s1" />
    <text x="928.0" y="224.0" font-size="15.36" class="s2">3E</text>
    <rect x="960.0" y="192.0" width="64.0" height="64.0" class="s1" />
    <text x="992.0" y="224.0" font-size="15.36" class="s2">3F</text>
    <rect x="0.0" y="256.0" width="64.0" height="64.0" class="s1" />
    <text x="32.0" y="288.0" font-size="15.36" class="s2">40</text>
    <rect x="64.0" y="256.0" width="64.0" height="64.0" class="s1" />
    <text x="96.0" y="288.0" font-size="15.36" class="s2">41</text>
    <rect x="128.0" y="256.0" width="64.0" height="64.0" class="s1" />
    <text x="160.0" y="288.0" font-size="15.36" class="s2">42</text>
    <rect x="192.0" y="256.0" width="64.0" height="64.0" class="s1" />
    <text x="224.0" y="288.0" font-size="15.36" class="s2">43</text>
    <rect x="0.0" y="320.0" width="64.0" height="64.0" class="s1" />
    <text x="32.0" y="352.0" font-size="15.36" class="s2">44</text>
    <rect x="64.0" y="320.0" width="64.0" height="64.0" class="s1" />
    <text x="96.0" y="352.0" font-size="15.36" class="s2">45</text>
    <rect x="128.0" y="320.0" width="64.0" height="64.0" class="s1" />
    <text x="160.0" y="352.0" font-size="15.36" class="s2">46</text>
    <rect x="192.0" y="320.0" width="64.0" height="64.0" class="s1" />
    <text x="224.0" y="352.0" font-size="15.36" class="s2">47</text>
    <rect x="0.0" y="384.0" width="64.0" height="64.0" class="s1" />
    <text x="32.0" y="416.0" font-size="15.36" class="s2">48</text>
    <rect x="64.0" y="384.0" width="64.0" height="64.0" class="s1" />
    <text x="96.0" y="416.0" font-size="15.36" class="s2">49</text>
    <rect x="128.0" y="384.0" width="64.0" height="64.0" class="s1" />
    <text x="160.0" y="416.0" font-size="15.36" class="s2">4A</text>
    <rect x="192.0" y="384.0" width="64.0" height="64.0" class="s1" />
    <text x="224.0" y="416.0" font-size="15.36" class="s2">4B</text>
    <rect x="0.0" y="448.0" width="64.0" height="64.0" class="s1" />
    <text x="32.0" y="480.0" font-size="15.36" class="s2">4C</text>
    <rect x="64.0" y="448.0" width="64.0" height="64.0" class="s1" />
    <text x="96.0" y="480.0" font-size="15.36" class="s2">4D</text>
    <rect x="128.0" y="448.0" width="64.0" height="64.0" class="s1" />
    <text x="160.0" y="480.0" font-size="15.36" class="s2">4E</text>
    <rect x="192.0" y="448.0" width="64.0" height="64.0" class="s1" />
    <text x="224.0" y="480.0" font-size="15.36" class="s2">4F</text>
    <rect x="256.0" y="256.0" width="64.0" height="64.0" class="s1" />
    <text x="288.0" y="288.0" font-size="15.36" class="s2">50</text>
    <rect x="320.0" y="256.0" width="64.0" height="64.0" class="s1" />
    <text x="352.0" y="288.0" font-size="15.36" class="s2">51</text>
    <rect x="384.0" y="256.0" width="64.0" height="64.0" class="s1" />
    <text x="416.0" y="288.0" font-size="15.36" class="s2">52</text>
    <rect x="448.0" y="256.0" width="64.0" height="64.0" class="s1" />
    <text x="480.0" y="288.0" font-size="15.36" class="s2">53</text>
    <rect x="256.0" y="320.0" width="64.0" height="64.0" class="s1" />
    <text x="288.0" y="352.0" font-size="15.36" class="s2">54</text>
    <rect x="320.0" y="320.0" width="64.0" height="64.0" class="s1" />
    <text x="352.0" y="352.0" font-size="15.36" class="s2">55</text>
    <rect x="384.0" y="320.0" width="64.0" height="64.0" class="s1" />
    <text x="416.0" y="352.0" font-size="15.36" class="s2">56</text>
    <rect x="448.0" y="320.0" width="64.0" height="64.0" class="s1" />
    <text x="480.0" y="352.0" font-size="15.36" class="s2">57</text>
    <rect x="256.0" y="384.0" width="64.0" height="64.0" class="s1" />
    <text x="288.0" y="416.0" font-size="15.36" class="s2">58</text>
    <rect x="320.0" y="384.0" width="64.0" height="64.0" class="s1" />
    <text x="352.0" y="416.0" font-size="15.36" class="s2">59</text>
    <rect x="384.0" y="384.0" width="64.0" height="64.0" class="s1" />
    <text x="416.0" y="416.0" font-size="15.36" class="s2">5A</text>
    <rect x="448.0" y="384.0" width="64.0" height="64.0" class="s1" />
    <text x="480.0" y="416.0" font-size="15.36" class="s2">5B</text>
    <rect x="256.0" y="448.0" width="64.0" height="64.0" class="s1" />
    <text x="288.0" y="480.0" font-size="15.36" class="s2">5C</text>
    <rect x="320.0" y="448.0" width="64.0" height="64.0" class="s1" />
    <text x="352.0" y="480.0" font-size="15.36" class="s2">5D</text>
    <rect x="384.0" y="448.0" width="64.0" height="64.0" class="s1" />
    <text x="416.0" y="480.0" font-size="15.36" class="s2">5E</text>
    <rect x="448.0" y="448.0" width="64.0" height="64.0" class="s1" />
    <text x="480.0" y="480.0" font-size="15.36" class="s2">5F</text>
    <rect x="512.0" y="256.0" width="64.0" height="64.0" class="s1" />
    <text x="544.0" y="288.0" font-size="15.36" class="s2">60</text>
    <rect x="576.0" y="256.0" width="64.0" height="64.0" class="s1" />
    <text x="608.0" y="288.0" font-size="15.36" class="s2">61</text>
    <rect x="640.0" y="256.0" width="64.0" height="64.0" class="s1" />
    <text x="672.0" y="288.0" font-size="15.36" class="s2">62</text>
    <rect x="704.0" y="256.0" width="64.0" height="64.0" class="s1" />
    <text x="736.0" y="288.0" font-size="15.36" class="s2">63</text>
    <rect x="512.0" y="320.0" width="64.0" height="64.0" class="s1" />
    <text x="544.0" y="352.0" font-size="15.36" class="s2">64</text>
    <rect x="576.0" y="320.0" width="64.0" height="64.0" class="s1" />
    <text x="608.0" y="352.0" font-size="15.36" class="s2">65</text>
    <rect x="640.0" y="320.0" width="64.0" height="64.0" class="s1" />
    <text x="672.0" y="352.0" font-size="15.36" class="s2">66</text>
    <rect x="704.0" y="320.0" width="64.0" height="64.0" class="s1" />
    <text x="736.0" y="352.0" font-size="15.36" class="s2">67</text>
    <rect x="512.0" y="384.0" width="64.0" height="64.0" class="s1" />
    <text x="544.0" y="416.0" font-size="15.36" class="s2">68</text>
    <rect x="576.0" y="384.0" width="64.0" height="64.0" class="s1" />
    <text x="608.0" y="416.0" font-size="15.36" class="s2">69</text>
    <rect x="640.0" y="384.0" width="64.0" height="64.0" class="s1" />
    <text x="672.0" y="416.0" font-size="15.36" class="s2">6A</text>
    <rect x="704.0" y="384.0" width="64.0" height="64.0" class="s1" />
    <text x="736.0" y="416.0" font-size="15.36" class="s2">6B</text>
    <rect x="512.0" y="448.0" width="64.0" height="64.0" class="s1" />
    <text x="544.0" y="480.0" font-size="15.36" class="s2">6C</text>
    <rect x="576.0" y="448.0" width="64.0" height="64.0" class="s1" />
    <text x="608.0" y="480.0" font-size="15.36" class="s2">6D</text>
    <rect x="640.0" y="448.0" width="64.0" height="64.0" class="s1" />
    <text x="672.0" y="480.0" font-size="15.36" class="s2">6E</text>
    <rect x="704.0" y="448.0" width="64.0" height="64.0" class="s1" />
    <text x="736.0" y="480.0" font-size="15.36" class="s2">6F</text>
    <rect x="768.0" y="256.0" width="64.0" height="64.0" class="s1" />
    <text x="800.0" y="288.0" font-size="15.36" class="s2">70</text>
    <rect x="832.0" y="256.0" width="64.0" height="64.0" class="s1" />
    <text x="864.0" y="288.0" font-size="15.36" class="s2">71</text>
    <rect x="896.0" y="256.0" width="64.0" height="64.0" class="s1" />
    <text x="928.0" y="288.0" font-size="15.36" class="s2">72</text>
    <rect x="960.0" y="256.0" width="64.0" height="64.0" class="s1" />
    <text x="992.0" y="288.0" font-size="15.36" class="s2">73</text>
    <rect x="768.0" y="320.0" width="64.0" height="64.0" class="s1" />
    <text x="800.0" y="352.0" font-size="15.36" class="s2">74</text>
    <rect x="832.0" y="320.0" width="64.0" height="64.0" class="s1" />
    <text x="864.0" y="352.0" font-size="15.36" class="s2">75</text>
    <rect x="896.0" y="320.0" width="64.0" height="64.0" class="s1" />
    <text x="928.0" y="352.0" font-size="15.36" class="s2">76</text>
    <rect x="960.0" y="320.0" width="64.0" height="64.0" class="s1" />
    <text x="992.0" y="352.0" font-size="15.36" class="s2">77</text>
    <rect x="768.0" y="384.0" width="64.0" height="64.0" class="s1" />
    <text x="800.0" y="416.0" font-size="15.36" class="s2">78</text>
    <rect x="832.0" y="384.0" width="64.0" height="64.0" class="s1" />
    <text x="864.0" y="416.0" font-size="15.36" class="s2">79</text>
    <rect x="896.0" y="384.0" width="64.0" height="64.0" class="s1" />
    <text x="928.0" y="416.0" font-size="15.36" class="s2">7A</text>
    <rect x="960.0" y="384.0" width="64.0" height="64.0" class="s1" />
    <text x="992.0" y="416.0" font-size="15.36" class="s2">7B</text>
    <rect x="768.0" y="448.0" width="64.0" height="64.0" class="s1" />
    <text x="800.0" y="480.0" font-size="15.36" class="s2">7C</text>
    <rect x="832.0" y="448.0" width="64.0" height="64.0" class="s1" />
    <text x="864.0" y="480.0" font-size="15.36" class="s2">7D</text>
    <rect x="896.0" y="448.0" width="64.0" height="64.0" class="s1" />
    <text x="928.0" y="480.0" font-size="15.36" class="s2">7E</text>
    <rect x="960.0" y="448.0" width="64.0" height="64.0" class="s1" />
    <text x="992.0" y="480.0" font-size="15.36" class="s2">7F</text>
    <rect x="0.0" y="512.0" width="64.0" height="64.0" class="s1" />
    <text x="32.0" y="544.0" font-size="15.36" class="s2">80</text>
    <rect x="64.0" y="512.0" width="64.0" height="64.0" class="s1" />
    <text x="96.0" y="544.0" font-size="15.36" class="s2">81</text>
    <rect x="128.0" y="512.0" width="64.0" height="64.0" class="s1" />
    <text x="160.0" y="544.0" font-size="15.36" class="s2">82</text>
    <rect x="192.0" y="512.0" width="64.0" height="64.0" class="s1" />
    <text x="224.0" y="544.0" font-size="15.36" class="s2">83</text>
    <rect x="0.0" y="576.0" width="64.0" height="64.0" class="s1" />
    <text x="32.0" y="608.0" font-size="15.36" class="s2">84</text>
    <rect x="64.0" y="576.0" width="64.0" height="64.0" class="s1" />
    <text x="96.0" y="608.0" font-size="15.36" class="s2">85</text>
    <rect x="128.0" y="576.0" width="64.0" height="64.0" class="s1" />
    <text x="160.0" y="608.0" font-size="15.36" class="s2">86</text>
    <rect x="192.0" y="576.0" width="64.0" height="64.0" class="s1" />
    <text x="224.0" y="608.0" font-size="15.36" class="s2">87</text>
    <rect x="0.0" y="640.0" width="64.0" height="64.0" class="s1" />
    <text x="32.0" y="672.0" font-size="15.36" class="s2">88</text>
    <rect x="64.0" y="640.0" width="64.0" height="64.0" class="s1" />
    <text x="96.0" y="672.0" font-size="15.36" class="s2">89</text>
    <rect x="128.0" y="640.0" width="64.0" height="64.0" class="s1" />
    <text x="160.0" y="672.0" font-size="15.36" class="s2">8A</text>
    <rect x="192.0" y="640.0" width="64.0" height="64.0" class="s1" />
    <text x="224.0" y="672.0" font-size="15.36" class="s2">8B</text>
    <rect x="0.0" y="704.0" width="64.0" height="64.0" class="s1" />
    <text x="32.0" y="736.0" font-size="15.36" class="s2">8C</text>
    <rect x="64.0" y="704.0" width="64.0" height="64.0" class="s1" />
    <text x="96.0" y="736.0" font-size="15.36" class="s2">8D</text>
    <rect x="128.0" y="704.0" width="64.0" height="64.0" class="s1" />
    <text x="160.0" y="736.0" font-size="15.36" class="s2">8E</text>
    <rect x="192.0" y="704.0" width="64.0" height="64.0" class="s1" />
    <text x="224.0" y="736.0" font-size="15.36" class="s2">8F</text>
    <rect x="256.0" y="512.0" width="64.0" height="64.0" class="s1" />
    <text x="288.0" y="544.0" font-size="15.36" class="s2">90</text>
    <rect x="320.0" y="512.0" width="64.0" height="64.0" class="s1" />
    <text x="352.0" y="544.0" font-size="15.36" class="s2">91</text>
    <rect x="384.0" y="512.0" width="64.0" height="64.0" class="s1" />
    <text x="416.0" y="544.0" font-size="15.36" class="s2">92</text>
    <rect x="448.0" y="512.0" width="64.0" height="64.0" class="s1" />
    <text x="480.0" y="544.0" font-size="15.36" class="s2">93</text>
    <rect x="256.0" y="576.0" width="64.0" height="64.0" class="s1" />
    <text x="288.0" y="608.0" font-size="15.36" class="s2">94</text>
    <rect x="320.0" y="576.0" width="64.0" height="64.0" class="s1" />
    <text x="352.0" y="608.0" font-size="15.36" class="s2">95</text>
    <rect x="384.0" y="576.0" width="64.0" height="64.0" class="s1" />
    <text x="416.0" y="608.0" font-size="15.36" class="s2">96</text>
    <rect x="448.0" y="576.0" width="64.0" height="64.0" class="s1" />
    <text x="480.0" y="608.0" font-size="15.36" class="s2">97</text>
    <rect x="256.0" y="640.0" width="64.0" height="64.0" class="s1" />
    <text x="288.0" y="672.0" font-size="15.36" class="s2">98</text>
    <rect x="320.0" y="640.0" width="64.0" height="64.0" class="s1" />
    <text x="352.0" y="672.0" font-size="15.36" class="s2">99</text>
    <rect x="384.0" y="640.0" width="64.0" height="64.0" class="s1" />
    <text x="416.0" y="672.0" font-size="15.36" class="s2">9A</text>
    <rect x="448.0" y="640.0" width="64.0" height="64.0" class="s1" />
    <text x="480.0" y="672.0" font-size="15.36" class="s2">9B</text>
    <rect x="256.0" y="704.0" width="64.0" height="64.0" class="s1" />
    <text x="288.0" y="736.0" font-size="15.36" class="s2">9C</text>
    <rect x="320.0" y="704.0" width="64.0" height="64.0" class="s1" />
    <text x="352.0" y="736.0" font-size="15.36" class="s2">9D</text>
    <rect x="384.0" y="704.0" width="64.0" height="64.0" class="s1" />
    <text x="416.0" y="736.0" font-size="15.36" class="s2">9E</text>
    <rect x="448.0" y="704.0" width="64.0" height="64.0" class="s1" />
    <text x="480.0" y="736.0" font-size="15.36" class="s2">9F</text>
    <rect x="512.0" y="512.0" width="64.0" height="64.0" class="s1" />
    <text x="544.0" y="544.0" font-size="15.36" class="s2">A0</text>
    <rect x="576.0" y="512.0" width="64.0" height="64.0" class="s1" />
    <text x="608.0" y="544.0" font-size="15.36" class="s2">A1</text>
    <rect x="640.0" y="512.0" width="64.0" height="64.0" class="s1" />
    <text x="672.0" y="544.0" font-size="15.36" class="s2">A2</text>
    <rect x="704.0" y="512.0" width="64.0" height="64.0" class="s1" />
    <text x="736.0" y="544.0" font-size="15.36" class="s2">A3</text>
    <rect x="512.0" y="576.0" width="64.0" height="64.0" class="s1" />
    <text x="544.0" y="608.0" font-size="15.36" class="s2">A4</text>
    <rect x="576.0" y="576.0" width="64.0" height="64.0" class="s1" />
    <text x="608.0" y="608.0" font-size="15.36" class="s2">A5</text>
    <rect x="640.0" y="576.0" width="64.0" height="64.0" class="s1" />
    <text x="672.0" y="608.0" font-size="15.36" class="s2">A6</text>
    <rect x="704.0" y="576.0" width="64.0" height="64.0" class="s1" />
    <text x="736.0" y="608.0" font-size="15.36" class="s2">A7</text>
    <rect x="512.0" y="640.0" width="64.0" height="64.0" class="s1" />
    <text x="544.0" y="672.0" font-size="15.36" class="s2">A8</text>
    <rect x="576.0" y="640.0" width="64.0" height="64.0" class="s1" />
    <text x="608.0" y="672.0" font-size="15.36" class="s2">A9</text>
    <rect x="640.0" y="640.0" width="64.0" height="64.0" class="s1" />
    <text x="672.0" y="672.0" font-size="15.36" class="s2">AA</text>
    <rect x="704.0" y="640.0" width="64.0" height="64.0" class="s1" />
    <text x="736.0" y="672.0" font-size="15.36" class="s2">AB</text>
    <rect x="512.0" y="704.0" width="64.0" height="64.0" class="s1" />
    <text x="544.0" y="736.0" font-size="15.36" class="s2">AC</text>
    <rect x="576.0" y="704.0" width="64.0" height="64.0" class="s1" />
    <text x="608.0" y="736.0" font-size="15.36" class="s2">AD</text>
    <rect x="640.0" y="704.0" width="64.0" height="64.0" class="s1" />
    <text x="672.0" y="736.0" font-size="15.36" class="s2">AE</text>
    <rect x="704.0" y="704.0" width="64.0" height="64.0" class="s1" />
    <text x="736.0" y="736.0" font-size="15.36" class="s2">AF</text>
    <rect x="768.0" y="512.0" width="64.0" height="64.0" class="s1" />
    <text x="800.0" y="544.0" font-size="15.36" class="s2">B0</text>
    <rect x="832.0" y="512.0" width="64.0" height="64.0" class="s1" />
    <text x="864.0" y="544.0" font-size="15.36" class="s2">B1</text>
    <rect x="896.0" y="512.0" width="64.0" height="64.0" class="s1" />
    <text x="928.0" y="544.0" font-size="15.36" class="s2">B2</text>
    <rect x="960.0" y="512.0" width="64.0" height="64.0" class="s1" />
    <text x="992.0" y="544.0" font-size="15.36" class="s2">B3</text>
    <rect x="768.0" y="576.0" width="64.0" height="64.0" class="s1" />
    <text x="800.0" y="608.0" font-size="15.36" class="s2">B4</text>
    <rect x="832.0" y="576.0" width="64.0" height="64.0" class="s1" />
    <text x="864.0" y="608.0" font-size="15.36" class="s2">B5</text>
    <rect x="896.0" y="576.0" width="64.0" height="64.0" class="s1" />
    <text x="928.0" y="608.0" font-size="15.36" class="s2">B6</text>
    <rect x="960.0" y="576.0" width="64.0" height="64.0" class="s1" />
    <text x="992.0" y="608.0" font-size="15.36" class="s2">B7</text>
    <rect x="768.0" y="640.0" width="64.0" height="64.0" class="s1" />
    <text x="800.0" y="672.0" font-size="15.36" class="s2">B8</text>
    <rect x="832.0" y="640.0" width="64.0" height="64.0" class="s1" />
    <text x="864.0" y="672.0" font-size="15.36" class="s2">B9</text>
    <rect x="896.0" y="640.0" width="64.0" height="64.0" class="s1" />
    <text x="928.0" y="672.0" font-size="15.36" class="s2">BA</text>
    <rect x="960.0" y="640.0" width="64.0" height="64.0" class="s1" />
    <text x="992.0" y="672.0" font-size="15.36" class="s2">BB</text>
    <rect x="768.0" y="704.0" width="64.0" height="64.0" class="s1" />
    <text x="800.0" y="736.0" font-size="15.36" class="s2">BC</text>
    <rect x="832.0" y="704.0" width="64.0" height="64.0" class="s1" />
    <text x="864.0" y="736.0" font-size="15.36" class="s2">BD</text>
    <rect x="896.0" y="704.0" width="64.0" height="64.0" class="s1" />
    <text x="928.0" y="736.0" font-size="15.36" class="s2">BE</text>
    <rect x="960.0" y="704.0" width="64.0" height="64.0" class="s1" />
    <text x="992.0" y="736.0" font-size="15.36" class="s2">BF</text>
    <rect x="0.0" y="768.0" width="64.0" height="64.0" class="s1" />
    <text x="32.0" y="800.0" font-size="15.36" class="s2">C0</text>
    <rect x="64.0" y="768.0" width="64.0" height="64.0" class="s1" />
    <text x="96.0" y="800.0" font-size="15.36" class="s2">C1</text>
    <rect x="128.0" y="768.0" width="64.0" height="64.0" class="s1" />
    <text x="160.0" y="800.0" font-size="15.36" class="s2">C2</text>
    <rect x="192.0" y="768.0" width="64.0" height="64.0" class="s1" />
    <text x="224.0" y="800.0" font-size="15.36" class="s2">C3</text>
    <rect x="0.0" y="832.0" width="64.0" height="64.0" class="s1" />
    <text x="32.0" y="864.0" font-size="15.36" class="s2">C4</text>
    <rect x="64.0" y="832.0" width="64.0" height="64.0" class="s1" />
    <text x="96.0" y="864.0" font-size="15.36" class="s2">C5</text>
    <rect x="128.0" y="832.0" width="64.0" height="64.0" class="s1" />
    <text x="160.0" y="864.0" font-size="15.36" class="s2">C6</text>
    <rect x="192.0" y="832.0" width="64.0" height="64.0" class="s1" />
    <text x="224.0" y="864.0" font-size="15.36" class="s2">C7</text>
    <rect x="0.0" y="896.0" width="64.0" height="64.0" class="s1" />
    <text x="32.0" y="928.0" font-size="15.36" class="s2">C8</text>
    <rect x="64.0" y="896.0" width="64.0" height="64.0" class="s1" />
    <text x="96.0" y="928.0" font-size="15.36" class="s2">C9</text>
    <rect x="128.0" y="896.0" width="64.0" height="64.0" class="s1" />
    <text x="160.0" y="928.0" font-size="15.36" class="s2">CA</text>
    <rect x="192.0" y="896.0" width="64.0" height="64.0" class="s1" />
    <text x="224.0" y="928.0" font-size="15.36" class="s2">CB</text>
    <rect x="0.0" y="960.0" width="64.0" height="64.0" class="s1" />
    <text x="32.0" y="992.0" font-size="15.36" class="s2">CC</text>
    <rect x="64.0" y="960.0" width="64.0" height="64.0" class="s1" />
    <text x="96.0" y="992.0" font-size="15.36" class="s2">CD</text>
    <rect x="128.0" y="960.0" width="64.0" height="64.0" class="s1" />
    <text x="160.0" y="992.0" font-size="15.36" class="s2">CE</text>
    <rect x="192.0" y="960.0" width="64.0" height="64.0" class="s1" />
    <text x="224.0" y="992.0" font-size="15.36" class="s2">CF</text>
    <rect x="256.0" y="768.0" width="64.0" height="64.0" class="s1" />
    <text x="288.0" y="800.0" font-size="15.36" class="s2">D0</text>
    <rect x="320.0" y="768.0" width="64.0" height="64.0" class="s1" />
    <text x="352.0" y="800.0" font-size="15.36" class="s2">D1</text>
    <rect x="384.0" y="768.0" width="64.0" height="64.0" class="s1" />
    <text x="416.0" y="800.0" font-size="15.36" class="s2">D2</text>
    <rect x="448.0" y="768.0" width="64.0" height="64.0" class="s1" />
    <text x="480.0" y="800.0" font-size="15.36" class="s2">D3</text>
    <rect x="256.0" y="832.0" width="64.0" height="64.0" class="s1" />
    <text x="288.0" y="864.0" font-size="15.36" class="s2">D4</text>
    <rect x="320.0" y="832.0" width="64.0" height="64.0" class="s1" />
    <text x="352.0" y="864.0" font-size="15.36" class="s2">D5</text>
    <rect x="384.0" y="832.0" width="64.0" height="64.0" class="s1" />
    <text x="416.0" y="864.0" font-size="15.36" class="s2">D6</text>
    <rect x="448.0" y="832.0" width="64.0" height="64.0" class="s1" />
    <text x="480.0" y="864.0" font-size="15.36" class="s2">D7</text>
    <rect x="256.0" y="896.0" width="64.0" height="64.0" class="s1" />
    <text x="288.0" y="928.0" font-size="15.36" class="s2">D8</text>
    <rect x="320.0" y="896.0" width="64.0" height="64.0" class="s1" />
    <text x="352.0" y="928.0" font-size="15.36" class="s2">D9</text>
    <rect x="384.0" y="896.0" width="64.0" height="64.0" class="s1" />
    <text x="416.0" y="928.0" font-size="15.36" class="s2">DA</text>
    <rect x="448.0" y="896.0" width="64.0" height="64.0" class="s1" />
    <text x="480.0" y="928.0" font-size="15.36" class="s2">DB</text>
    <rect x="256.0" y="960.0" width="64.0" height="64.0" class="s1" />
    <text x="288.0" y="992.0" font-size="15.36" class="s2">DC</text>
    <rect x="320.0" y="960.0" width="64.0" height="64.0" class="s1" />
    <text x="352.0" y="992.0" font-size="15.36" class="s2">DD</text>
    <rect x="384.0" y="960.0" width="64.0" height="64.0" class="s1" />
    <text x="416.0" y="992.0" font-size="15.36" class="s2">DE</text>
    <rect x="448.0" y="960.0" width="64.0" height="64.0" class="s1" />
    <text x="480.0" y="992.0" font-size="15.36" class="s2">DF</text>
    <rect x="512.0" y="768.0" width="64.0" height="64.0" class="s1" />
    <text x="544.0" y="800.0" font-size="15.36" class="s2">E0</text>
    <rect x="576.0" y="768.0" width="64.0" height="64.0" class="s1" />
    <text x="608.0" y="800.0" font-size="15.36" class="s2">E1</text>
    <rect x="640.0" y="768.0" width="64.0" height="64.0" class="s1" />
    <text x="672.0" y="800.0" font-size="15.36" class="s2">E2</text>
    <rect x="704.0" y="768.0" width="64.0" height="64.0" class="s1" />
    <text x="736.0" y="800.0" font-size="15.36" class="s2">E3</text>
    <rect x="512.0" y="832.0" width="64.0" height="64.0" class="s1" />
    <text x="544.0" y="864.0" font-size="15.36" class="s2">E4</text>
    <rect x="576.0" y="832.0" width="64.0" height="64.0" class="s1" />
    <text x="608.0" y="864.0" font-size="15.36" class="s2">E5</text>
    <rect x="640.0" y="832.0" width="64.0" height="64.0" class="s1" />
    <text x="672.0" y="864.0" font-size="15.36" class="s2">E6</text>
    <rect x="704.0" y="832.0" width="64.0" height="64.0" class="s1" />
    <text x="736.0" y="864.0" font-size="15.36" class="s2">E7</text>
    <rect x="512.0" y="896.0" width="64.0" height="64.0" class="s1" />
    <text x="544.0" y="928.0" font-size="15.36" class="s2">E8</text>
    <rect x="576.0" y="896.0" width="64.0" height="64.0" class="s1" />
    <text x="608.0" y="928.0" font-size="15.36" class="s2">E9</text>
    <rect x="640.0" y="896.0" width="64.0" height="64.0" class="s1" />
    <text x="672.0" y="928.0" font-size="15.36" class="s2">EA</text>
    <rect x="704.0" y="896.0" width="64.0" height="64.0" class="s1" />
    <text x="736.0" y="928.0" font-size="15.36" class="s2">EB</text>
    <rect x="512.0" y="960.0" width="64.0" height="64.0" class="s1" />
    <text x="544.0" y="992.0" font-size="15.36" class="s2">EC</text>
    <rect x="576.0" y="960.0" width="64.0" height="64.0" class="s1" />
    <text x="608.0" y="992.0" font-size="15.36" class="s2">ED</text>
    <rect x="640.0" y="960.0" width="64.0" height="64.0" class="s1" />
    <text x="672.0" y="992.0" font-size="15.36" class="s2">EE</text>
    <rect x="704.0" y="960.0" width="64.0" height="64.0" class="s1" />
    <text x="736.0" y="992.0" font-size="15.36" class="s2">EF</text>
    <rect x="768.0" y="768.0" width="64.0" height="64.0" class="s1" />
    <text x="800.0" y="800.0" font-size="15.36" class="s2">F0</text>
    <rect x="832.0" y="768.0" width="64.0" height="64.0" class="s1" />
    <text x="864.0" y="800.0" font-size="15.36" class="s2">F1</text>
    <rect x="896.0" y="768.0" width="64.0" height="64.0" class="s1" />
    <text x="928.0" y="800.0" font-size="15.36" class="s2">F2</text>
    <rect x="960.0" y="768.0" width="64.0" height="64.0" class="s1" />
    <text x="992.0" y="800.0" font-size="15.36" class="s2">F3</text>
    <rect x="768.0" y="832.0" width="64.0" height="64.0" class="s1" />
    <text x="800.0" y="864.0" font-size="15.36" class="s2">F4</text>
    <rect x="832.0" y="832.0" width="64.0" height="64.0" class="s1" />
    <text x="864.0" y="864.0" font-size="15.36" class="s2">F5</text>
    <rect x="896.0" y="832.0" width="64.0" height="64.0" class="s1" />
    <text x="928.0" y="864.0" font-size="15.36" class="s2">F6</text>
    <rect x="960.0" y="832.0" width="64.0" height="64.0" class="s1" />
    <text x="992.0" y="864.0" font-size="15.36" class="s2">F7</text>
    <rect x="768.0" y="896.0" width="64.0" height="64.0" class="s1" />
    <text x="800.0" y="928.0" font-size="15.36" class="s2">F8</text>
    <rect x="832.0" y="896.0" width="64.0" height="64.0" class="s1" />
    <text x="864.0" y="928.0" font-size="15.36" class="s2">F9</text>
    <rect x="896.0" y="896.0" width="64.0" height="64.0" class="s1" />
    <text x="928.0" y="928.0" font-size="15.36" class="s2">FA</text>
    <rect x="960.0" y="896.0" width="64.0" height="64.0" class="s1" />
    <text x="992.0" y="928.0" font-size="15.36" class="s2">FB</text>
    <rect x="768.0" y="960.0" width="64.0" height="64.0" class="s1" />
    <text x="800.0" y="992.0" font-size="15.36" class="s2">FC</text>
    <rect x="832.0" y="960.0" width="64.0" height="64.0" class="s1" />
    <text x="864.0" y="992.0" font-size="15.36" class="s2">FD</text>
    <rect x="896.0" y="960.0" width="64.0" height="64.0" class="s1" />
    <text x="928.0" y="992.0" font-size="15.36" class="s2">FE</text>
    <rect x="960.0" y="960.0" width="64.0" height="64.0" class="s1" />
    <text x="992.0" y="992.0" font-size="15.36" class="s2">FF</text>
    <rect x="0.0" y="0.0" width="256.0" height="256.0" class="s3" />
    <text x="128.0" y="128.0" font-size="25.6" class="s4">0</text>
    <rect x="256.0" y="0.0" width="256.0" height="256.0" class="s3" />
    <text x="384.0" y="128.0" font-size="25.6" class="s4">1</text>
    <rect x="512.0" y="0.0" width="256.0" height="256.0" class="s3" />
    <text x="640.0" y="128.0" font-size="25.6" class="s4">2</text>
    <rect x="768.0" y="0.0" width="256.0" height="256.0" class="s3" />
    <text x="896.0" y="128.0" font-size="25.6" class="s4">3</text>
    <rect x="0.0" y="256.0" width="256.0" height="256.0" class="s3" />
    <text x="128.0" y="384.0" font-size="25.6" class="s4">4</text>
    <rect x="256.0" y="256.0" width="256.0" height="256.0" class="s3" />
    <text x="384.0" y="384.0" font-size="25.6" class="s4">5</text>
    <rect x="512.0" y="256.0" width="256.0" height="256.0" class="s3" />
    <text x="640.0" y="384.0" font-size="25.6" class="s4">6</text>
    <rect x="768.0" y="256.0" width="256.0" height="256.0" class="s3" />
    <text x="896.0" y="384.0" font-size="25.6" class="s4">7</text>
    <rect x="0.0" y="512.0" width="256.0" height="256.0" class="s3" />
    <text x="128.0" y="640.0" font-size="25.6" class="s4">8</text>
    <rect x="256.0" y="512.0" width="256.0" height="256.0" class="s3" />
    <text x="384.0" y="640.0" font-size="25.6" class="s4">9</text>
    <rect x="512.0" y="512.0" width="256.0" height="256.0" class="s3" />
    <text x="640.0" y="640.0" font-size="25.6" class="s4">A</text>
    <rect x="768.0" y="512.0" width="256.0" height="256.0" class="s3" />
    <text x="896.0" y="640.0" font-size="25.6" class="s4">B</text>
    <rect x="0.0" y="768.0" width="256.0" height="256.0" class="s3" />
    <text x="128.0" y="896.0" font-size="25.6" class="s4">C</text>
    <rect x="256.0" y="768.0" width="256.0" height="256.0" class="s3" />
    <text x="384.0" y="896.0" font-size="25.6" class="s4">D</text>
    <rect x="512.0" y="768.0" width="256.0" height="256.0" class="s3" />
    <text x="640.0" y="896.0" font-size="25.6" class="s4">E</text>
    <rect x="768.0" y="768.0" width="256.0" height="256.0" class="s3" />
    <text x="896.0" y="896.0" font-size="25.6" class="s4">F</text>
    <circle cx="230.374" cy="251.570" r="50.802" class="s5" />
    <circle cx="415.299" cy="112.805" r="51.307" class="s5" />
    <circle cx="532.894" cy="122.441" r="50.573" class="s5" />
    <circle cx="30.841" cy="503.032" r="23.762" class="s5" />
    <circle cx="363.071" cy="311.928" r="40.278" class="s6" />
    <circle cx="466.415" cy="333.390" r="43.763" class="s6" />
    <circle cx="407.979" cy="399.471" r="59.866" class="s6" />
    <circle cx="433.740" cy="390.487" r="20.216" class="s6" />
    <circle cx="296.279" cy="504.563" r="59.901" class="s5" />
    <circle cx="441.252" cy="449.415" r="48.477" class="s6" />
    <circle cx="688.579" cy="270.093" r="37.310" class="s5" />
    <circle cx="555.481" cy="352.354" r="33.435" class="s5" />
    <circle cx="651.468" cy="391.411" r="57.773" class="s5" />
    <circle cx="764.007" cy="417.266" r="34.316" class="s5" />
    <circle cx="977.919" cy="362.516" r="59.398" class="s5" />
    <circle cx="181.582" cy="577.554" r="56.648" class="s5" />
    <circle cx="246.533" cy="684.869" r="50.148" class="s5" />
    <circle cx="422.318" cy="685.012" r="37.125" class="s6" />
    <circle cx="509.092" cy="687.499" r="27.464" class="s6" />
    <circle cx="453.607" cy="740.302" r="36.977" class="s6" />
    <circle cx="498.416" cy="730.664" r="48.637" class="s6" />
    <circle cx="575.188" cy="520.315" r="25.787" class="s6" />
    <circle cx="532.585" cy="525.630" r="26.909" class="s6" />
    <circle cx="533.541" cy="728.218" r="47.720" class="s6" />
    <circle cx="798.783" cy="697.641" r="54.161" class="s6" />
    <circle cx="801.105" cy="746.662" r="31.802" class="s6" />
    <circle cx="937.946" cy="740.436" r="53.590" class="s5" />
    <circle cx="287.923" cy="844.467" r="32.174" class="s5" />
    <circle cx="395.923" cy="879.341" r="25.686" class="s5" />
    <circle cx="580.484" cy="797.169" r="34.651" class="s5" />
    <circle cx="1160.710" cy="833.109" r="52.767" class="s5" />
    <circle cx="817.331" cy="912.891" r="56.798" class="s5" />
</svg>
